<?xml version="1.0" ?><svg width="50px" height="50px" viewBox="0 0 50 50" id="Message_And_Communication_Icons" style="enable-background:new 0 0 50 50;" version="1.1" xml:space="preserve" xmlns="http://www.w3.org/2000/svg" xmlns:xlink="http://www.w3.org/1999/xlink"><g><g><g><g><g><g><path d="M34.1,4.8l-0.3,2l8.4,1.5c0.3,0.1,0.5,0.4,0.5,0.7l-6.2,35.2c-0.1,0.3-0.4,0.5-0.7,0.5        l-8.4-1.5l-0.6,3.5L39,48.7l7.4-41.8L34.1,4.8z M37,7c-0.2,0-0.3-0.2-0.3-0.4c0-0.2,0.2-0.3,0.4-0.3c0.2,0,0.3,0.2,0.3,0.4        S37.2,7,37,7z" style="fill:#4DE0F9;"/></g></g></g></g><g><g><path d="M38.4,47.7l-22.7-4L23,2.2l22.7,4L38.4,47.7z M17.1,42.7l20.4,3.6l6.9-39.1L24,3.6L17.1,42.7z" style="fill:#0D5FC3;"/></g></g><g><g><path d="M38.4,47.7l-22.7-4L23,2.2l22.7,4L38.4,47.7z M17.1,42.7l20.4,3.6l6.9-39.1L24,3.6L17.1,42.7z" style="fill:#0D5FC3;"/></g></g><g><g><path d="M37.9,8.5c-0.1,0-0.1,0-0.2,0h0l-7.9-1.4c-0.3,0-0.5-0.2-0.7-0.4s-0.2-0.5-0.2-0.8l0.4-2.4      l10,1.8l-0.4,2.4C38.9,8.1,38.4,8.5,37.9,8.5z M30.1,5.9l7.7,1.4L38,6.2l-7.7-1.4L30.1,5.9z" style="fill:#0D5FC3;"/></g></g><g><g><path d="M38.8,6.7l-1.4-0.2c0,0.1,0.1,0.1,0,0.2C37.4,6.9,37.2,7,37,7c-0.2,0-0.3-0.2-0.3-0.4      c0-0.1,0.1-0.1,0.1-0.2L29.3,5C29.2,5,29,5.1,29,5.2l-0.3,1.6c-0.1,0.4,0.2,0.8,0.6,0.9l8.5,1.5c0.4,0.1,0.8-0.2,0.9-0.6L39,7      C39.1,6.9,39,6.7,38.8,6.7z" style="fill:#4DE0F9;"/></g></g><g><g><path d="M37.9,8.5c-0.1,0-0.1,0-0.2,0h0l-7.9-1.4c-0.3,0-0.5-0.2-0.7-0.4s-0.2-0.5-0.2-0.8l0.4-2.4      l10,1.8l-0.4,2.4C38.9,8.1,38.4,8.5,37.9,8.5z M30.1,5.9l7.7,1.4L38,6.2l-7.7-1.4L30.1,5.9z" style="fill:#0D5FC3;"/></g></g><g><g><rect height="32.3" style="fill:#0D5FC3;" transform="matrix(0.9847 0.1742 -0.1742 0.9847 4.4173 -3.489)" width="1.2" x="21.5" y="7.3"/></g></g></g><g><g><rect height="1.2" style="fill:#0D5FC3;" width="11.2" x="5.3" y="41.8"/></g></g><g><g><rect height="1.2" style="fill:#0D5FC3;" width="7" x="10" y="39.4"/></g></g><g><g><rect height="1.2" style="fill:#0D5FC3;" width="3.4" x="13.9" y="36.9"/></g></g><g><g><rect height="1.2" style="fill:#0D5FC3;" width="1.9" x="11.6" y="33.5"/></g></g></g></svg>